<?xml version="1.0" standalone="no"?>
<!DOCTYPE svg PUBLIC "-//W3C//DTD SVG 20010904//EN"
 "http://www.w3.org/TR/2001/REC-SVG-20010904/DTD/svg10.dtd">
<svg version="1.0" xmlns="http://www.w3.org/2000/svg"
 width="832.000000pt" height="832.000000pt" viewBox="0 0 832.000000 832.000000"
 preserveAspectRatio="xMidYMid meet">
<metadata>
Created by potrace 1.14, written by Peter Selinger 2001-2017
</metadata>
<g transform="translate(0.000000,832.000000) scale(0.100000,-0.100000)"
fill="#000000" stroke="none">
<path d="M5775 7914 c-1614 -718 -2912 -1279 -4015 -1739 -168 -70 -312 -131
-320 -136 -10 -6 134 -8 392 -3 l406 6 2172 543 c1280 320 2179 549 2188 558
13 14 10 25 -31 109 -25 51 -78 183 -117 293 -113 313 -174 416 -274 465 -82
39 -113 32 -401 -96z"/>
<path d="M6105 6897 c-506 -128 -1474 -372 -2152 -543 l-1231 -309 151 -6 c84
-4 1156 -10 2383 -14 l2232 -7 -24 114 c-53 245 -127 580 -160 719 -31 128
-40 152 -71 188 -19 23 -52 50 -73 61 -85 43 -63 48 -1055 -203z"/>
<path d="M405 6640 c-171 -9 -232 -29 -304 -99 -69 -67 -93 -120 -99 -211 -6
-98 10 -152 59 -205 86 -94 182 -110 574 -100 160 4 320 6 356 5 73 -1 16 -23
1094 415 198 81 372 151 388 157 15 5 27 13 27 17 0 4 -352 11 -782 14 -431 4
-871 9 -978 11 -107 2 -258 1 -335 -4z"/>
<path d="M7490 6624 c0 -8 31 -147 135 -601 4 -16 25 -33 68 -54 77 -39 161
-96 241 -163 34 -28 70 -58 80 -66 18 -14 18 -8 13 200 -6 235 -18 308 -65
412 -55 119 -145 196 -282 242 -81 26 -190 44 -190 30z"/>
<path d="M10 5822 c0 -113 4 -173 11 -178 12 -7 8 -53 -11 -124 -9 -35 -10
-607 -5 -2535 6 -2356 8 -2492 24 -2531 10 -22 35 -57 55 -76 76 -74 -55 -68
1553 -72 796 -2 2056 -9 2798 -16 1401 -13 2747 -8 2990 10 77 6 166 17 199
25 158 40 295 152 365 297 103 215 124 435 98 1023 -9 195 -12 379 -8 430 4
50 4 94 -1 100 -10 11 -485 13 -1238 6 -480 -5 -533 -1 -685 46 -325 102 -555
369 -615 712 -16 90 -14 263 4 348 45 214 168 408 335 532 234 174 517 216
1291 193 201 -7 403 -8 450 -4 l85 7 5 218 c5 235 7 240 60 235 43 -5 50 -36
50 -249 l0 -196 46 -7 c64 -8 186 -7 201 2 24 15 36 1102 14 1250 -53 356
-203 555 -471 627 -130 35 -374 38 -2780 29 -1290 -5 -2849 -9 -3465 -9
l-1120 0 -100 32 c-55 17 -108 34 -117 38 -17 7 -18 -5 -18 -163z m567 -176
c28 -9 36 -36 24 -70 l-11 -26 -180 0 c-106 0 -189 4 -201 10 -12 7 -19 21
-19 39 0 31 14 47 45 52 35 7 320 3 342 -5z m610 8 c26 -7 43 -68 25 -86 -15
-15 -308 -32 -363 -21 -43 8 -44 9 -47 51 -3 36 0 44 20 51 25 11 330 14 365
5z m593 -3 c29 -8 51 -64 32 -83 -15 -15 -299 -32 -354 -21 -43 8 -43 9 -46
55 l-3 47 88 4 c160 6 258 5 283 -2z m604 -1 c22 -8 26 -16 26 -49 0 -39 -1
-40 -42 -45 -92 -11 -260 -17 -303 -10 -35 5 -49 12 -55 28 -13 34 -1 74 24
79 44 9 326 7 350 -3z m606 1 c25 -7 44 -58 30 -80 -8 -15 -211 -33 -315 -29
l-80 3 -3 52 -3 52 88 4 c159 6 258 5 283 -2z m628 -47 l3 -51 -53 -6 c-68 -9
-276 -9 -316 -1 -21 4 -32 14 -36 30 -9 33 3 72 22 77 10 3 98 4 197 3 l180
-1 3 -51z m582 47 c21 -6 26 -14 28 -48 3 -41 3 -41 -35 -47 -74 -10 -288 -16
-323 -8 -33 7 -35 10 -38 54 l-3 47 88 4 c160 6 258 5 283 -2z m614 -1 c22 -8
26 -16 26 -49 0 -39 -1 -40 -42 -45 -89 -11 -279 -17 -323 -11 -36 6 -46 12
-51 31 -9 34 3 72 24 77 34 9 341 7 366 -3z m616 -10 c18 -29 12 -70 -12 -79
-32 -12 -286 -23 -336 -15 -33 5 -44 12 -48 30 -9 34 3 72 24 77 9 3 95 5 190
4 141 -2 174 -5 182 -17z m610 0 c6 -8 10 -29 10 -47 0 -30 -3 -32 -42 -38
-63 -9 -345 -11 -354 -3 -4 5 -8 27 -8 50 l-1 43 90 6 c156 11 295 6 305 -11z
m610 0 c5 -8 10 -31 10 -51 l0 -36 -61 -7 c-79 -8 -267 -8 -308 0 -22 5 -33
14 -37 30 -9 34 3 72 24 77 9 3 95 5 190 4 141 -2 174 -5 182 -17z m600 0 c5
-8 10 -29 10 -47 0 -30 -2 -32 -42 -37 -89 -11 -266 -17 -302 -11 -21 4 -41
16 -47 27 -14 25 -2 76 19 82 9 2 93 4 185 3 137 -2 170 -5 177 -17z m329 -22
c50 -15 74 -30 110 -67 54 -55 106 -147 120 -213 12 -52 7 -73 -16 -82 -33
-13 -51 5 -78 77 -14 40 -37 89 -50 109 -30 45 -100 87 -169 103 -48 11 -51
14 -54 44 -7 69 1 71 137 29z m230 -547 c11 -7 13 -45 9 -208 -5 -227 -11
-248 -61 -238 -18 4 -36 11 -41 15 -10 10 -4 410 7 428 9 14 65 16 86 3z m-1
-2917 c10 -3 12 -53 10 -226 l-3 -223 -54 -3 -54 -3 5 218 c3 120 9 226 13
235 6 16 35 17 83 2z m0 -612 c9 -7 12 -58 10 -223 l-3 -214 -54 -3 -54 -3 5
214 c3 118 8 219 12 226 8 13 65 15 84 3z m3 -569 c26 -64 -23 -215 -96 -300
-91 -107 -295 -143 -271 -49 5 19 19 29 72 46 125 42 190 119 203 242 8 77 14
88 52 88 23 0 32 -6 40 -27z m-7223 -315 c13 -11 16 -67 4 -83 -8 -12 -305
-20 -353 -10 -23 5 -29 12 -29 33 0 47 11 71 34 74 47 7 332 -5 344 -14z m622
-14 c17 -44 12 -73 -12 -79 -13 -3 -106 -4 -208 -3 l-185 3 -3 39 c-6 68 -13
66 203 66 l195 0 10 -26z m602 -18 c14 -65 9 -66 -196 -66 -196 0 -206 3 -206
51 0 61 -5 60 203 57 l191 -3 8 -39z m3588 36 l45 -7 3 -47 3 -46 -58 -8 c-82
-10 -330 1 -348 16 -15 13 -20 56 -9 84 5 14 29 16 163 15 86 0 176 -4 201 -7z
m640 -16 c30 -13 38 -57 15 -76 -20 -17 -187 -28 -283 -18 -106 10 -142 41
-113 96 8 16 27 17 183 14 102 -2 183 -9 198 -16z m610 1 c27 -14 38 -50 20
-72 -16 -19 -66 -26 -203 -26 -132 0 -191 13 -212 46 -8 12 -10 28 -5 40 7 19
18 21 191 23 135 2 191 -1 209 -11z m616 -11 c3 -13 4 -34 2 -47 -4 -32 -42
-38 -236 -38 l-152 -1 -11 27 c-5 14 -7 39 -4 55 l7 28 194 0 194 0 6 -24z"/>
<path d="M6520 3911 c-69 -5 -143 -11 -165 -15 -243 -45 -440 -161 -560 -331
-295 -416 -146 -989 310 -1196 111 -50 207 -70 385 -79 186 -10 1469 -11 1685
-1 l140 6 2 500 c2 275 -1 636 -5 801 l-7 302 -570 6 c-313 3 -687 8 -830 10
-143 2 -316 1 -385 -3z m59 -441 c168 -28 281 -155 298 -336 25 -266 -168
-459 -423 -423 -139 20 -237 89 -292 207 -24 51 -27 69 -27 162 1 131 23 194
97 276 58 63 124 100 200 113 74 12 75 12 147 1z"/>
</g>
</svg>
